<?xml version="1.0" encoding="iso-8859-1"?>
<!-- Uploaded to: SVG Repo, www.svgrepo.com, Generator: SVG Repo Mixer Tools -->
<svg version="1.1" id="Layer_1" xmlns="http://www.w3.org/2000/svg" xmlns:xlink="http://www.w3.org/1999/xlink" 
	 viewBox="0 0 512.168 512.168" xml:space="preserve">
<path d="M512.168,99.14V73.7c0-15.816-12.936-28.752-28.752-28.752h-368.24H28.92c-15.816,0-28.752,12.936-28.752,28.752v25.432h512
	V99.14z"/>
<path style="opacity:0.25;fill:#FFFFFF;enable-background:new    ;" d="M147.2,44.948h-32.024H28.92
	c-15.816,0-28.752,12.936-28.752,28.752v25.432h115.888"/>
<circle style="fill:#D80E47;" cx="40.704" cy="72.044" r="8.184"/>
<circle style="fill:#05C3D6;" cx="65.264" cy="72.044" r="8.184"/>
<g>
	<circle style="fill:#FFFFFF;" cx="89.824" cy="72.044" r="8.184"/>
	<path style="fill:#FFFFFF;" d="M428.424,86.42H171.048c-7.904,0-14.376-6.472-14.376-14.376l0,0
		c0-7.904,6.472-14.376,14.376-14.376h257.376c7.904,0,14.376,6.472,14.376,14.376l0,0C442.8,79.948,436.328,86.42,428.424,86.42z"
		/>
</g>
<path d="M180.744,65.484l1.968,7.56c0.432,1.672,0.832,3.2,1.112,4.752h0.096c0.336-1.512,0.832-3.112,1.32-4.72l2.432-7.592h2.28
	l2.304,7.456c0.552,1.784,0.984,3.344,1.32,4.856h0.096c0.24-1.512,0.648-3.08,1.144-4.832l2.12-7.488h2.68l-4.8,14.888h-2.464
	l-2.28-7.112c-0.52-1.656-0.952-3.144-1.32-4.888h-0.064c-0.368,1.784-0.832,3.328-1.352,4.92l-2.4,7.08h-2.464l-4.496-14.888h2.768
	V65.484z"/>
<path d="M203.712,65.484l1.968,7.56c0.432,1.672,0.832,3.2,1.112,4.752h0.096c0.336-1.512,0.832-3.112,1.32-4.72l2.432-7.592h2.28
	l2.304,7.456c0.552,1.784,0.984,3.344,1.32,4.856h0.096c0.24-1.512,0.648-3.08,1.144-4.832l2.12-7.488h2.68l-4.8,14.888h-2.464
	l-2.28-7.112c-0.52-1.656-0.952-3.144-1.32-4.888h-0.064c-0.368,1.784-0.832,3.328-1.352,4.92l-2.4,7.08h-2.464l-4.496-14.888h2.768
	V65.484z"/>
<path d="M226.68,65.484l1.968,7.56c0.432,1.672,0.832,3.2,1.112,4.752h0.096c0.336-1.512,0.832-3.112,1.32-4.72l2.432-7.592h2.28
	l2.304,7.456c0.552,1.784,0.984,3.344,1.32,4.856h0.096c0.24-1.512,0.648-3.08,1.144-4.832l2.12-7.488h2.68l-4.8,14.888h-2.464
	l-2.28-7.112c-0.52-1.656-0.952-3.144-1.32-4.888h-0.064c-0.368,1.784-0.832,3.328-1.352,4.92l-2.4,7.08h-2.464l-4.496-14.888h2.768
	V65.484z"/>
<path d="M246.36,78.78c0-1.144,0.768-1.936,1.84-1.936s1.816,0.8,1.816,1.936c0,1.112-0.704,1.936-1.84,1.936
	C247.096,80.724,246.36,79.892,246.36,78.78z"/>
<g>
	<rect x="461.496" y="70.412" style="fill:#FFFFFF;" width="23" height="4"/>
	<polygon style="fill:#FFFFFF;" points="474.76,84.348 471.92,81.516 481.024,72.412 471.92,63.316 474.76,60.484 486.68,72.412 	
		"/>
</g>
<polygon style="fill:#C9C9C9;" points="429.992,67.396 422.336,77.3 414.68,67.396 "/>
<rect y="99.14" style="fill:#B20B18;" width="512" height="368.08"/>
<rect x="16" y="115.188" style="fill:#D80E47;" width="480" height="336"/>
<g style="opacity:0.35;">
	<path style="fill:#FFFFFF;" d="M492,119.188v328H20v-328H492 M496,115.188H16v336h480V115.188L496,115.188z"/>
</g>
<circle style="fill:#05C3D6;" cx="256.032" cy="283.356" r="38.136"/>
<path style="fill:#FFFFFF;" d="M381.32,302.14v-37.56l-38.232-3.824c-2.184-8.048-5.536-15.6-9.808-22.528l24.648-30.128
	l-26.56-26.56l-31.336,25.64c-6.552-3.448-13.592-6.104-21.016-7.776l-4.128-41.256h-18.776h-0.16h-18.784l-4.128,41.256
	c-7.416,1.672-14.456,4.328-21.016,7.776l-31.336-25.64l-26.56,26.56l24.648,30.128c-4.272,6.928-7.624,14.48-9.808,22.528
	l-38.232,3.824v37.56l38.288,3.832c2.2,8.016,5.504,15.584,9.776,22.496l-24.672,30.152l26.56,26.56l31.328-25.632
	c6.56,3.448,13.6,6.096,21.016,7.768l4.128,41.256h18.784h0.16h18.784l4.128-41.256c7.416-1.672,14.464-4.32,21.016-7.768
	l31.328,25.632l26.56-26.56l-24.672-30.152c4.272-6.912,7.576-14.48,9.776-22.496L381.32,302.14z M256.032,339.86
	c-31.208,0-56.504-25.296-56.504-56.504s25.296-56.504,56.504-56.504s56.504,25.296,56.504,56.504S287.24,339.86,256.032,339.86z"/>
</svg>